<svg xmlns="http://www.w3.org/2000/svg" viewBox="0 0 48 48"><defs><style>.cls-1{fill:#2f89fc;}</style></defs><title>webdev</title><g id="Layer_2" data-name="Layer 2"><g id="Objects"><path class="cls-1" d="M1.41,9.59h45c0-2,.11-4.06,0-6.07-.08-1.16-1.08-1.77-2.31-1.77H35c-.25,0-.54.1-.74,0a5.51,5.51,0,0,1-.83-.84,10.94,10.94,0,0,1,.84-.83c.11-.09.31,0,.46,0C37.86,0,41,0,44.1,0,46.47,0,48,1.85,48,4.67c0,6.58,0,13.16,0,19.74,0,.67,0,1.4-.75,1.37s-.67-.75-.67-1.36V11.37H1.41V38.88c0,2.4.77,3.31,2.79,3.31H25.94c-.32-1-.6-1.8-.86-2.62-.38-1.23-.16-1.9.85-2.41A1.11,1.11,0,0,0,26.69,36c0-.76-.35-.93-.78-1.17-1-.54-1.2-1.21-.79-2.44.23-.69.48-1.38.73-2.06.47-1.27,1-1.56,2.08-1,.47.23.79.33,1.22-.2a1.22,1.22,0,0,0,.13-1.38c-.42-1.29-.18-2,.87-2.5.6-.31,1.2-.61,1.82-.89,1-.43,1.54-.15,2,1,.2.57.36,1,1,1s.75-.49.94-1c.44-1.12,1-1.4,2-1,.61.28,1.21.59,1.81.9a1.73,1.73,0,0,1,.87,2.42c-.17.52-.37.93.09,1.49s.84.38,1.33.16c.95-.43,1.52-.12,1.93,1,.27.72.51,1.45.74,2.18.39,1.23.18,1.9-.83,2.42a1.27,1.27,0,0,0,0,2.33c1,.53,1.21,1.22.8,2.44-.25.76-.52,1.51-.78,2.27,1.54.49,2.72-.65,2.73-2.67,0-3.07,0-6.14,0-9.2a2.59,2.59,0,0,1,0-.89c.14-.31.46-.8.62-.76s.54.46.73.78c.09.14,0,.43,0,.66,0,3.1,0,6.2,0,9.31,0,2.85-1.46,4.6-3.85,4.64-1.24,0-2.48,0-3.62,0A5.56,5.56,0,0,1,40.44,46c-.28.56-1,.84-1.48,1.21a3.48,3.48,0,0,1-.69.36c-1.59.78-1.84.64-2.65-1.13a1.12,1.12,0,0,0-.85-.54,1,1,0,0,0-.78.5c-.84,1.8-1.05,1.92-2.64,1.12l-1-.48c-1.44-.73-1.61-1.15-1.12-3.09-.38,0-.73-.06-1.08-.06H4.31c-3,0-4.31-1.58-4.31-5.21V5C0,1.71,1.41,0,4.16,0H29.83c.22,0,.49-.09.65,0a6,6,0,0,1,.74.83,4,4,0,0,1-.76.81c-.22.14-.55,0-.83,0H4.34c-2.24,0-2.93.82-2.93,3.46Zm24.9,23.72c1.36.25,1.84,1,1.86,2.65s-.56,2.43-1.86,2.78l.91,2.6c1.14-1,1.88-.76,2.88.34s.93,2.22.33,3.51l2.08,1.05c.35-1.43.83-2.19,2.32-2.18s2,.82,2.3,2.21l2-1c-.59-2.08-.55-2,1-4.1.88-1.2,1.58.1,2.44.07l.82-2.39c-1.26-.37-1.82-1-1.82-2.72s.59-2.4,1.86-2.77l-.9-2.53c-1.14.86-1.89.76-2.9-.4s-.89-2.23-.33-3.51l-2.08-1c-.31,1.55-.91,2.12-2.34,2.18s-1.87-1-2.29-2.2l-2.13,1.06c1.6,2.08-.07,3-.93,4.15s-1.47-.22-2.3-.18Z"/><path class="cls-1" d="M4.79,25.4h3.9c3.78,0,7.56,0,11.34,0,.8,0,1.09-.21,1.06-1.23q-.09-3.48,0-7c0-1-.18-1.29-1-1.27-3,.06-5.93,0-8.9,0-.28,0-.61.07-.83-.08a1.26,1.26,0,0,1-.48-.81c0-.23.27-.56.48-.7a1.4,1.4,0,0,1,.74-.07h9.37c1.52,0,2.06.67,2.06,2.52V24.7c0,1.67-.59,2.4-2,2.4q-7.59,0-15.18,0c-1.33,0-1.93-.75-1.94-2.35q0-4.1,0-8.19c0-1.51.59-2.21,1.82-2.25a6.72,6.72,0,0,1,1.68,0,1.21,1.21,0,0,1,.65.85c0,.19-.39.52-.63.75-.08.07-.25,0-.37,0-1.73.07-1.73.07-1.74,2.2Z"/><path class="cls-1" d="M14,34.69c0-1,0-1.94,0-2.92,0-1.35.62-2.11,1.72-2.13q2.38,0,4.77,0c1.12,0,1.74.76,1.76,2.09,0,2,0,4,0,5.94,0,1.33-.65,2-1.78,2.07q-2.38,0-4.77,0c-1.06,0-1.65-.75-1.7-2,0-.52,0-1,0-1.57s0-1,0-1.45Zm6.84,3.38c0-2.14,0-4.11,0-6.08a.93.93,0,0,0-.63-.63c-1.37-.06-2.74,0-4.11,0-.46,0-.69.17-.69.77,0,1.76,0,3.51,0,5.26,0,.24.26.68.41.68C17.48,38.08,19.12,38.07,20.86,38.07Z"/><path class="cls-1" d="M34.24,18.86h8.61c.55,0,1.17,0,1.16.88s-.6.82-1.12.81H25.68c-.19,0-.43.07-.55,0a6.66,6.66,0,0,1-.73-.85c.26-.27.5-.74.77-.77.93-.1,1.87,0,2.81,0h6.26Z"/><path class="cls-1" d="M30.83,15.26H36c.54,0,1.08.06,1.07.87s-.53.82-1,.82H25.44c-.5,0-1-.08-1-.82s.54-.86,1.08-.86Z"/><path class="cls-1" d="M7.93,35.83H5c-.52,0-1-.18-.94-.89a1.23,1.23,0,0,1,.92-.77c2-.07,4,0,6,0,.52,0,1,.17.92.88a1.23,1.23,0,0,1-.9.78,29.79,29.79,0,0,1-3,0Z"/><path class="cls-1" d="M7.87,30.53c1,0,2.06-.07,3.08,0,.32,0,.62.52.92.8-.3.29-.6.81-.9.82q-3,.1-6.07,0c-.32,0-.62-.52-.93-.8.3-.28.59-.77.92-.81a26.91,26.91,0,0,1,3,0Z"/><path class="cls-1" d="M41.53,15.27a6.64,6.64,0,0,1,1.67,0c.31.07.55.52.82.8-.24.28-.48.77-.74.79a25.73,25.73,0,0,1-3.62,0c-.25,0-.48-.52-.72-.8.24-.27.46-.73.74-.79A9.51,9.51,0,0,1,41.53,15.27Z"/><path class="cls-1" d="M6,4.12A1.47,1.47,0,0,1,7.26,5.69,1.46,1.46,0,0,1,6,7.22,1.41,1.41,0,0,1,4.67,5.73,1.48,1.48,0,0,1,6,4.12Z"/><path class="cls-1" d="M9.93,4.13a1.42,1.42,0,0,1,1.32,1.54c0,.91-.45,1.45-1.21,1.54A1.4,1.4,0,0,1,8.66,5.75,1.51,1.51,0,0,1,9.93,4.13Z"/><path class="cls-1" d="M15.25,5.66A1.41,1.41,0,0,1,14,7.22a1.39,1.39,0,0,1-1.27-1.57,1.37,1.37,0,0,1,1.24-1.51C14.64,4.05,15.24,4.79,15.25,5.66Z"/><path class="cls-1" d="M39.36,36c0,3-2.06,5.44-4.53,5.41S30.35,39,30.36,36.07s2-5.41,4.53-5.4S39.35,33.09,39.36,36Zm-4.56,3.7c1.72,0,3.12-1.6,3.14-3.65s-1.32-3.68-3-3.74S31.79,34,31.78,36.07A3.43,3.43,0,0,0,34.8,39.74Z"/><path class="cls-1" d="M36,36.26c-.37.33-.71.86-1.12,1-.59.14-1-.37-1-1.11s.35-1.29.94-1.21c.41,0,.78.55,1.18.85Z"/></g></g></svg>