<svg xmlns="http://www.w3.org/2000/svg" viewBox="0 0 495.79 420.65"><defs><style>.cls-1{fill:#2f89fc;}</style></defs><title>software_1</title><g id="Layer_2" data-name="Layer 2"><g id="Objects"><path class="cls-1" d="M29.45,147v-6.48q0-57.66,0-115.32C29.45,8,37.33,0,54.36,0H471.21c16.64,0,24.57,7.87,24.57,24.35q0,142.53,0,285.06c0,16.25-7.88,24.09-24.24,24.09H302.66c.88,9.86,1.71,19.22,2.54,28.58a6.74,6.74,0,0,1,.14,1c-1.15,19.92,14,27.13,30.56,28.92,3.14.34,6.33.17,9.46.51,5.42.58,8.65,4.2,8.52,9.22s-3.54,8.47-9.07,8.6c-7.82.18-15.64.07-23.46.07H185.56c-1.67,0-3.34.05-5,0-5.36-.32-9-3.79-9.17-8.64s3.38-8.57,8.65-9.23c6.58-.82,13.33-1,19.71-2.57,13.64-3.46,19.17-10.86,20.19-24.82.76-10.26,1.84-20.5,2.81-31.18h-72v5.44q0,28.69,0,57.41c0,15.41-8.36,23.84-23.72,23.86q-51.66.06-103.34,0C8.17,420.61,0,412.43,0,396.93Q0,284.1,0,171.28c0-16.37,7.72-24.14,24-24.29C25.69,147,27.31,147,29.45,147Zm18,0h6.36c23.62,0,47.27.56,70.87-.18,18.18-.57,26.7,10.41,26.31,26.58-.66,27.43-.18,54.9-.18,82.36v6h327v-5.83q0-115.3,0-230.62c0-7.28,0-7.31-7.15-7.31H54.84c-7.19,0-7.41.22-7.41,7.16q0,58.15,0,116.31Zm85.36,137.22q0-55.92,0-111.84c0-7.24-.14-7.39-7.1-7.4H24.83C18,165,18,165,18,172q0,111.84,0,223.67c0,6.86.1,7,7,7q50.43,0,100.85,0c6.68,0,7-.32,7-7.1Q132.81,339.89,132.79,284.21Zm18.28,31.32H470.53c1.33,0,2.84.35,3.94-.15,1.28-.59,3.12-1.93,3.15-3,.23-10.58.14-21.18.14-32H151.07Zm78.2,76.58h66.91c-12.51-18-7.61-38.91-12.12-58.22H241.42C236.81,353.28,241.73,374.11,229.27,392.11Z"/></g></g></svg>