<svg xmlns="http://www.w3.org/2000/svg" viewBox="0 0 48 48"><defs><style>.cls-1{fill:#2f89fc;}</style></defs><title>python</title><g id="Layer_2" data-name="Layer 2"><g id="Objects"><path id="path1948" class="cls-1" d="M23.71,0a33.55,33.55,0,0,0-5.53.47c-4.9.85-5.79,2.65-5.79,6v4.36H24v1.46H8.05A7.2,7.2,0,0,0,.82,18a21,21,0,0,0,0,11.64C1.64,33.07,3.6,35.49,7,35.49h4V30.26a7.33,7.33,0,0,1,7.23-7.12H29.75a5.79,5.79,0,0,0,5.78-5.82V6.42c0-3.1-2.64-5.43-5.78-5.95A36.24,36.24,0,0,0,23.71,0ZM17.45,3.51A2.18,2.18,0,1,1,15.28,5.7,2.19,2.19,0,0,1,17.45,3.51Z"/><path id="path1950" class="cls-1" d="M37,12.24v5.08a7.38,7.38,0,0,1-7.23,7.26H18.18a5.88,5.88,0,0,0-5.79,5.82V41.31c0,3.1,2.73,4.93,5.79,5.82a19.63,19.63,0,0,0,11.57,0c2.91-.84,5.78-2.52,5.78-5.82V36.94H24V35.49H41.32c3.37,0,4.62-2.32,5.79-5.81s1.16-7,0-11.64c-.83-3.31-2.42-5.8-5.79-5.8ZM30.47,39.85A2.19,2.19,0,1,1,28.3,42,2.19,2.19,0,0,1,30.47,39.85Z"/></g></g></svg>