<svg xmlns="http://www.w3.org/2000/svg" viewBox="0 0 48 48"><defs><style>.cls-1,.cls-2{fill:#2f89fc;}.cls-1{fill-rule:evenodd;}</style></defs><title>git</title><g id="Layer_2" data-name="Layer 2"><g id="Objects"><path class="cls-1" d="M24,0C10.75,0,0,11,0,24.61A24.58,24.58,0,0,0,16.41,48c1.2.23,1.64-.54,1.64-1.19s0-2.52,0-4.58c-6.68,1.49-8.09-2.9-8.09-2.9-1.09-2.85-2.66-3.6-2.66-3.6-2.18-1.53.16-1.5.16-1.5a5.08,5.08,0,0,1,3.68,2.54c2.14,3.76,5.62,2.67,7,2a5.26,5.26,0,0,1,1.52-3.29c-5.33-.62-10.93-2.73-10.93-12.16a9.63,9.63,0,0,1,2.47-6.6,9.08,9.08,0,0,1,.23-6.52s2-.66,6.6,2.53a22.17,22.17,0,0,1,12,0c4.58-3.19,6.6-2.53,6.6-2.53a9.08,9.08,0,0,1,.23,6.52,9.63,9.63,0,0,1,2.47,6.6c0,9.45-5.61,11.53-11,12.14A6,6,0,0,1,30,40c0,3.29,0,5.94,0,6.75,0,.66.43,1.43,1.65,1.18A24.55,24.55,0,0,0,48,24.61C48,11,37.25,0,24,0Z"/><path class="cls-2" d="M9.09,35.33c-.05.12-.24.16-.41.08A.32.32,0,0,1,8.46,35c0-.13.24-.16.42-.08s.27.25.21.37Z"/><path class="cls-2" d="M10.06,36.44c-.11.11-.34.06-.49-.11a.38.38,0,0,1-.07-.51.36.36,0,0,1,.49.11.37.37,0,0,1,.07.51Z"/><path class="cls-2" d="M11,37.86c-.15.1-.39,0-.54-.21a.45.45,0,0,1,0-.59c.14-.1.38,0,.53.21a.44.44,0,0,1,0,.59Z"/><path class="cls-2" d="M12.3,39.23c-.13.15-.41.11-.61-.1s-.27-.48-.14-.62a.45.45,0,0,1,.62.09c.21.2.27.48.13.63Z"/><path class="cls-2" d="M14.09,40c-.05.2-.32.28-.6.2s-.45-.31-.39-.5a.45.45,0,0,1,.6-.2c.27.08.45.31.39.5Z"/><path class="cls-2" d="M16.06,40.17c0,.2-.23.37-.51.38s-.52-.16-.52-.36.22-.37.51-.38.52.16.52.36Z"/><path class="cls-2" d="M17.89,39.85c0,.2-.17.4-.45.46s-.54-.07-.57-.27.16-.4.44-.46.54.07.58.27Z"/></g></g></svg>