<svg xmlns="http://www.w3.org/2000/svg" viewBox="0 0 48 48"><defs><style>.cls-1{fill:#2f89fc;}</style></defs><title>twitter_1</title><g id="Layer_2" data-name="Layer 2"><g id="Objects"><path class="cls-1" d="M15.1,48c18.11,0,28-18.47,28-34.48q0-.78,0-1.56A23.28,23.28,0,0,0,48,5.68a16.63,16.63,0,0,1-5.66,1.91A12,12,0,0,0,46.67.89a17.57,17.57,0,0,1-6.25,2.94A9.08,9.08,0,0,0,33.23,0c-5.44,0-9.85,5.43-9.85,12.12a14.68,14.68,0,0,0,.26,2.76C15.45,14.37,8.2,9.55,3.34,2.22A14.36,14.36,0,0,0,2,8.31,13,13,0,0,0,6.39,18.39a8.4,8.4,0,0,1-4.46-1.51V17c0,5.87,3.39,10.77,7.9,11.88a8,8,0,0,1-4.45.21c1.25,4.82,4.89,8.32,9.2,8.42A17.57,17.57,0,0,1,2.35,42.72,16.56,16.56,0,0,1,0,42.56,24.29,24.29,0,0,0,15.1,48"/></g></g></svg>